<mxfile host="app.diagrams.net" agent="Mozilla/5.0 (Macintosh; Intel Mac OS X 10_15_7) AppleWebKit/537.36 (KHTML, like Gecko) Chrome/135.0.0.0 Safari/537.36" version="26.2.12">
  <diagram name="Page-1" id="YRH4KlTf0yCgoGL5NaJt">
    <mxGraphModel dx="1300" dy="721" grid="1" gridSize="10" guides="1" tooltips="1" connect="1" arrows="1" fold="1" page="1" pageScale="1" pageWidth="850" pageHeight="1100" math="0" shadow="0">
      <root>
        <mxCell id="0" />
        <mxCell id="1" parent="0" />
        <mxCell id="veFM9stI8ytsD3KFMut3-21" value="" style="edgeStyle=orthogonalEdgeStyle;rounded=0;orthogonalLoop=1;jettySize=auto;html=1;" edge="1" parent="1" source="veFM9stI8ytsD3KFMut3-1" target="veFM9stI8ytsD3KFMut3-2">
          <mxGeometry relative="1" as="geometry" />
        </mxCell>
        <mxCell id="veFM9stI8ytsD3KFMut3-1" value="Start" style="ellipse;whiteSpace=wrap;html=1;" vertex="1" parent="1">
          <mxGeometry x="360" y="40" width="120" height="50" as="geometry" />
        </mxCell>
        <mxCell id="veFM9stI8ytsD3KFMut3-23" style="edgeStyle=orthogonalEdgeStyle;rounded=0;orthogonalLoop=1;jettySize=auto;html=1;" edge="1" parent="1" source="veFM9stI8ytsD3KFMut3-2" target="veFM9stI8ytsD3KFMut3-9">
          <mxGeometry relative="1" as="geometry" />
        </mxCell>
        <mxCell id="veFM9stI8ytsD3KFMut3-24" value="yes" style="edgeLabel;html=1;align=center;verticalAlign=middle;resizable=0;points=[];" vertex="1" connectable="0" parent="veFM9stI8ytsD3KFMut3-23">
          <mxGeometry x="-0.3" y="2" relative="1" as="geometry">
            <mxPoint as="offset" />
          </mxGeometry>
        </mxCell>
        <mxCell id="veFM9stI8ytsD3KFMut3-26" value="no" style="edgeStyle=orthogonalEdgeStyle;rounded=0;orthogonalLoop=1;jettySize=auto;html=1;" edge="1" parent="1" source="veFM9stI8ytsD3KFMut3-2" target="veFM9stI8ytsD3KFMut3-25">
          <mxGeometry relative="1" as="geometry" />
        </mxCell>
        <mxCell id="veFM9stI8ytsD3KFMut3-2" value="Is Guest" style="rhombus;whiteSpace=wrap;html=1;" vertex="1" parent="1">
          <mxGeometry x="380" y="110" width="80" height="80" as="geometry" />
        </mxCell>
        <mxCell id="veFM9stI8ytsD3KFMut3-27" style="edgeStyle=orthogonalEdgeStyle;rounded=0;orthogonalLoop=1;jettySize=auto;html=1;entryX=0.5;entryY=0;entryDx=0;entryDy=0;" edge="1" parent="1" source="veFM9stI8ytsD3KFMut3-9" target="veFM9stI8ytsD3KFMut3-18">
          <mxGeometry relative="1" as="geometry" />
        </mxCell>
        <mxCell id="veFM9stI8ytsD3KFMut3-28" value="login" style="edgeLabel;html=1;align=center;verticalAlign=middle;resizable=0;points=[];" vertex="1" connectable="0" parent="veFM9stI8ytsD3KFMut3-27">
          <mxGeometry x="-0.4" relative="1" as="geometry">
            <mxPoint as="offset" />
          </mxGeometry>
        </mxCell>
        <mxCell id="veFM9stI8ytsD3KFMut3-9" value="route?" style="rhombus;whiteSpace=wrap;html=1;" vertex="1" parent="1">
          <mxGeometry x="540" y="110" width="80" height="80" as="geometry" />
        </mxCell>
        <mxCell id="veFM9stI8ytsD3KFMut3-31" style="edgeStyle=orthogonalEdgeStyle;rounded=0;orthogonalLoop=1;jettySize=auto;html=1;" edge="1" parent="1" source="veFM9stI8ytsD3KFMut3-14" target="veFM9stI8ytsD3KFMut3-15">
          <mxGeometry relative="1" as="geometry" />
        </mxCell>
        <mxCell id="veFM9stI8ytsD3KFMut3-14" value="validate user and password filds" style="rounded=0;whiteSpace=wrap;html=1;" vertex="1" parent="1">
          <mxGeometry x="520" y="330" width="120" height="60" as="geometry" />
        </mxCell>
        <mxCell id="veFM9stI8ytsD3KFMut3-33" value="" style="edgeStyle=orthogonalEdgeStyle;rounded=0;orthogonalLoop=1;jettySize=auto;html=1;" edge="1" parent="1" source="veFM9stI8ytsD3KFMut3-15" target="veFM9stI8ytsD3KFMut3-32">
          <mxGeometry relative="1" as="geometry" />
        </mxCell>
        <mxCell id="veFM9stI8ytsD3KFMut3-39" value="no" style="edgeLabel;html=1;align=center;verticalAlign=middle;resizable=0;points=[];" vertex="1" connectable="0" parent="veFM9stI8ytsD3KFMut3-33">
          <mxGeometry x="-0.3143" y="2" relative="1" as="geometry">
            <mxPoint as="offset" />
          </mxGeometry>
        </mxCell>
        <mxCell id="veFM9stI8ytsD3KFMut3-35" value="" style="edgeStyle=orthogonalEdgeStyle;rounded=0;orthogonalLoop=1;jettySize=auto;html=1;" edge="1" parent="1" source="veFM9stI8ytsD3KFMut3-15" target="veFM9stI8ytsD3KFMut3-34">
          <mxGeometry relative="1" as="geometry" />
        </mxCell>
        <mxCell id="veFM9stI8ytsD3KFMut3-40" value="yes" style="edgeLabel;html=1;align=center;verticalAlign=middle;resizable=0;points=[];" vertex="1" connectable="0" parent="veFM9stI8ytsD3KFMut3-35">
          <mxGeometry x="-0.84" relative="1" as="geometry">
            <mxPoint as="offset" />
          </mxGeometry>
        </mxCell>
        <mxCell id="veFM9stI8ytsD3KFMut3-15" value="Info valid?" style="rhombus;whiteSpace=wrap;html=1;" vertex="1" parent="1">
          <mxGeometry x="540" y="430" width="80" height="80" as="geometry" />
        </mxCell>
        <mxCell id="veFM9stI8ytsD3KFMut3-17" value="end" style="ellipse;whiteSpace=wrap;html=1;" vertex="1" parent="1">
          <mxGeometry x="360" y="1020" width="120" height="50" as="geometry" />
        </mxCell>
        <mxCell id="veFM9stI8ytsD3KFMut3-20" value="" style="edgeStyle=orthogonalEdgeStyle;rounded=0;orthogonalLoop=1;jettySize=auto;html=1;" edge="1" parent="1" source="veFM9stI8ytsD3KFMut3-18" target="veFM9stI8ytsD3KFMut3-14">
          <mxGeometry relative="1" as="geometry" />
        </mxCell>
        <mxCell id="veFM9stI8ytsD3KFMut3-18" value="get user and password&amp;nbsp;" style="shape=parallelogram;perimeter=parallelogramPerimeter;whiteSpace=wrap;html=1;fixedSize=1;" vertex="1" parent="1">
          <mxGeometry x="520" y="240" width="120" height="60" as="geometry" />
        </mxCell>
        <mxCell id="veFM9stI8ytsD3KFMut3-25" value="route?" style="rhombus;whiteSpace=wrap;html=1;" vertex="1" parent="1">
          <mxGeometry x="240" y="110" width="80" height="80" as="geometry" />
        </mxCell>
        <mxCell id="veFM9stI8ytsD3KFMut3-49" style="edgeStyle=orthogonalEdgeStyle;rounded=0;orthogonalLoop=1;jettySize=auto;html=1;" edge="1" parent="1" source="veFM9stI8ytsD3KFMut3-32" target="veFM9stI8ytsD3KFMut3-17">
          <mxGeometry relative="1" as="geometry" />
        </mxCell>
        <mxCell id="veFM9stI8ytsD3KFMut3-32" value="Return 422 Error" style="shape=parallelogram;perimeter=parallelogramPerimeter;whiteSpace=wrap;html=1;fixedSize=1;" vertex="1" parent="1">
          <mxGeometry x="290" y="440" width="120" height="60" as="geometry" />
        </mxCell>
        <mxCell id="veFM9stI8ytsD3KFMut3-38" value="" style="edgeStyle=orthogonalEdgeStyle;rounded=0;orthogonalLoop=1;jettySize=auto;html=1;" edge="1" parent="1" source="veFM9stI8ytsD3KFMut3-34" target="veFM9stI8ytsD3KFMut3-37">
          <mxGeometry relative="1" as="geometry" />
        </mxCell>
        <mxCell id="veFM9stI8ytsD3KFMut3-34" value="check user data" style="whiteSpace=wrap;html=1;" vertex="1" parent="1">
          <mxGeometry x="520" y="550" width="120" height="60" as="geometry" />
        </mxCell>
        <mxCell id="veFM9stI8ytsD3KFMut3-42" value="" style="edgeStyle=orthogonalEdgeStyle;rounded=0;orthogonalLoop=1;jettySize=auto;html=1;" edge="1" parent="1" source="veFM9stI8ytsD3KFMut3-37" target="veFM9stI8ytsD3KFMut3-41">
          <mxGeometry relative="1" as="geometry" />
        </mxCell>
        <mxCell id="veFM9stI8ytsD3KFMut3-44" value="" style="edgeStyle=orthogonalEdgeStyle;rounded=0;orthogonalLoop=1;jettySize=auto;html=1;" edge="1" parent="1" source="veFM9stI8ytsD3KFMut3-37" target="veFM9stI8ytsD3KFMut3-43">
          <mxGeometry relative="1" as="geometry" />
        </mxCell>
        <mxCell id="veFM9stI8ytsD3KFMut3-37" value="user password valid?" style="rhombus;whiteSpace=wrap;html=1;" vertex="1" parent="1">
          <mxGeometry x="540" y="630" width="80" height="80" as="geometry" />
        </mxCell>
        <mxCell id="veFM9stI8ytsD3KFMut3-48" style="edgeStyle=orthogonalEdgeStyle;rounded=0;orthogonalLoop=1;jettySize=auto;html=1;" edge="1" parent="1" source="veFM9stI8ytsD3KFMut3-41" target="veFM9stI8ytsD3KFMut3-17">
          <mxGeometry relative="1" as="geometry" />
        </mxCell>
        <mxCell id="veFM9stI8ytsD3KFMut3-41" value="Return 401 Error" style="shape=parallelogram;perimeter=parallelogramPerimeter;whiteSpace=wrap;html=1;fixedSize=1;" vertex="1" parent="1">
          <mxGeometry x="400" y="630" width="120" height="60" as="geometry" />
        </mxCell>
        <mxCell id="veFM9stI8ytsD3KFMut3-47" value="" style="edgeStyle=orthogonalEdgeStyle;rounded=0;orthogonalLoop=1;jettySize=auto;html=1;" edge="1" parent="1" source="veFM9stI8ytsD3KFMut3-43" target="veFM9stI8ytsD3KFMut3-46">
          <mxGeometry relative="1" as="geometry" />
        </mxCell>
        <mxCell id="veFM9stI8ytsD3KFMut3-43" value="generate token" style="whiteSpace=wrap;html=1;" vertex="1" parent="1">
          <mxGeometry x="520" y="740" width="120" height="60" as="geometry" />
        </mxCell>
        <mxCell id="veFM9stI8ytsD3KFMut3-50" style="edgeStyle=orthogonalEdgeStyle;rounded=0;orthogonalLoop=1;jettySize=auto;html=1;" edge="1" parent="1" source="veFM9stI8ytsD3KFMut3-46">
          <mxGeometry relative="1" as="geometry">
            <mxPoint x="420" y="1020" as="targetPoint" />
          </mxGeometry>
        </mxCell>
        <mxCell id="veFM9stI8ytsD3KFMut3-46" value="return token" style="shape=parallelogram;perimeter=parallelogramPerimeter;whiteSpace=wrap;html=1;fixedSize=1;" vertex="1" parent="1">
          <mxGeometry x="520" y="830" width="120" height="60" as="geometry" />
        </mxCell>
      </root>
    </mxGraphModel>
  </diagram>
</mxfile>
